<svg xmlns="http://www.w3.org/2000/svg" version="1.1" xmlns:xlink="http://www.w3.org/1999/xlink" width="1000" height="1000"><g clip-path="url(#SvgjsClipPath1301)"><rect width="1000" height="1000" fill="#ffffff"></rect><g transform="matrix(13.114754098360656,0,0,13.114754098360656,106.55737704918033,100)"><svg xmlns="http://www.w3.org/2000/svg" version="1.1" xmlns:xlink="http://www.w3.org/1999/xlink" width="60" height="61"><svg width="60" height="61" viewBox="0 0 60 61" fill="none" xmlns="http://www.w3.org/2000/svg">
<rect x="39.8203" y="46.5391" width="31.2775" height="8.92857" rx="4.46429" transform="rotate(-120 39.8203 46.5391)" fill="#1D263C"></rect>
<rect x="5" y="36.2734" width="50" height="8.92857" rx="4.46429" fill="#050F27"></rect>
<path d="M30.5853 42.0731L30.5853 36.2717L27.2359 36.2717L30.5853 42.0731Z" fill="#050F27"></path>
<path fill-rule="evenodd" clip-rule="evenodd" d="M10.7699 16.6804C8.63462 17.9131 7.90303 20.6435 9.13581 22.7787L22.0809 45.2003L25.1689 45.2003L30.5853 42.0731L27.2359 36.2717L16.8682 18.3144C15.6354 16.1792 12.9051 15.4476 10.7699 16.6804Z" fill="#050F27"></path>
<path d="M30.5853 45.2003L30.5853 42.0731L25.1689 45.2003L30.5853 45.2003Z" fill="#050F27"></path>
</svg></svg></g></g><defs><clipPath id="SvgjsClipPath1301"><rect width="1000" height="1000" x="0" y="0" rx="0" ry="0"></rect></clipPath></defs></svg>