<svg width="136" height="61" viewBox="0 0 136 61" fill="none" xmlns="http://www.w3.org/2000/svg">
<path d="M123.532 26.5684C124.752 26.5684 125.586 27.8002 125.132 28.9326L119.249 43.6172C118.727 44.9147 118.095 45.8425 117.299 46.4453C116.501 47.0492 115.547 47.3202 114.396 47.3203C113.925 47.3203 113.48 47.2924 113.06 47.2412C112.273 47.1456 111.748 46.4418 111.748 45.666C111.748 44.7216 112.514 43.9561 113.458 43.9561H113.892C114.558 43.9561 115.082 43.8791 115.509 43.6143C115.934 43.3505 116.281 42.8901 116.57 42.0898V42.0889L116.949 41.0879L112.268 28.9727C111.82 27.8145 112.674 26.5684 113.916 26.5684C114.665 26.5684 115.334 27.0404 115.583 27.7471L118.654 36.4551L121.917 27.6904C122.168 27.0156 122.812 26.5684 123.532 26.5684ZM93.793 26.5684C94.7914 26.5684 95.6006 27.3775 95.6006 28.376V38.8105C95.6006 39.7988 94.7997 40.5996 93.8115 40.5996C92.9168 40.5996 92.1591 39.9392 92.0381 39.0527L92.0195 38.9189C91.1084 40.1496 89.3789 40.9639 87.6045 40.9639C85.9851 40.9638 84.6896 40.4162 83.7998 39.4297C82.9112 38.4443 82.4366 37.032 82.4365 35.3203V28.376C82.4365 27.3774 83.2466 26.5684 84.2451 26.5684C85.2435 26.5685 86.0527 27.3775 86.0527 28.376V34.1162C86.0528 35.4217 86.3101 36.3178 86.7852 36.8867C87.2571 37.4517 87.9594 37.7119 88.8926 37.7119C89.9506 37.7119 90.7157 37.4032 91.2197 36.7891C91.727 36.1709 91.9844 35.2256 91.9844 33.9199V28.376C91.9844 27.3774 92.7944 26.5684 93.793 26.5684ZM77.7158 19.9316C78.7606 19.9318 79.6074 20.7794 79.6074 21.8242V38.708C79.6074 39.7528 78.7606 40.5995 77.7158 40.5996C76.6709 40.5996 75.8233 39.7529 75.8232 38.708V31.9199H66.9512V38.708C66.9512 39.7529 66.1045 40.5996 65.0596 40.5996C64.0147 40.5996 63.168 39.7529 63.168 38.708V21.8242C63.168 20.7793 64.0147 19.9316 65.0596 19.9316C66.1045 19.9316 66.9512 20.7793 66.9512 21.8242V28.3877H75.8232V21.8242C75.8232 20.7793 76.6709 19.9316 77.7158 19.9316ZM107.614 19.5684C108.605 19.5684 109.408 20.3715 109.408 21.3623V38.8057C109.408 39.7965 108.605 40.5996 107.614 40.5996C106.624 40.5994 105.82 39.7963 105.82 38.8057V29.624H102.993V38.792C102.993 39.7905 102.183 40.5996 101.185 40.5996C100.186 40.5994 99.377 39.7904 99.377 38.792V29.624H98.2451C97.4012 29.624 96.7168 28.9396 96.7168 28.0957C96.7169 27.2519 97.4013 26.5684 98.2451 26.5684H99.377V24.0645C99.377 23.0661 100.186 22.2561 101.185 22.2559C102.183 22.2559 102.993 23.0659 102.993 24.0645V26.5684H105.82V21.3623C105.82 20.3716 106.624 19.5686 107.614 19.5684Z" fill="#050F27" stroke="black" stroke-width="0.2"/>
<rect x="39.8203" y="46.5391" width="31.2775" height="8.92857" rx="4.46429" transform="rotate(-120 39.8203 46.5391)" fill="#1D263C"/>
<rect x="5" y="36.2734" width="50" height="8.92857" rx="4.46429" fill="#050F27"/>
<path d="M30.5853 42.0731L30.5853 36.2717L27.2359 36.2717L30.5853 42.0731Z" fill="#050F27"/>
<path fill-rule="evenodd" clip-rule="evenodd" d="M10.7699 16.6804C8.63462 17.9131 7.90303 20.6435 9.13581 22.7787L22.0809 45.2003L25.1689 45.2003L30.5853 42.0731L27.2359 36.2717L16.8682 18.3144C15.6354 16.1792 12.9051 15.4476 10.7699 16.6804Z" fill="#050F27"/>
<path d="M30.5853 45.2003L30.5853 42.0731L25.1689 45.2003L30.5853 45.2003Z" fill="#050F27"/>
<path d="M130.877 27.16C128.097 27.16 126 25.0631 126 22.33C126 19.5969 128.12 17.5 130.877 17.5C133.634 17.5 135.707 19.5734 135.707 22.33C135.707 25.0866 133.634 27.16 130.877 27.16ZM130.877 26.3589C133.163 26.3589 134.859 24.639 134.859 22.33C134.859 20.021 133.163 18.3011 130.877 18.3011C128.568 18.3011 126.872 20.021 126.872 22.33C126.872 24.639 128.568 26.3589 130.877 26.3589ZM129.84 24.533C129.84 24.7737 129.645 24.9688 129.405 24.9688C129.164 24.9688 128.969 24.7737 128.969 24.533V19.9667C128.969 19.7364 129.155 19.5498 129.386 19.5498H131.089C132.267 19.5498 133.068 20.1624 133.068 21.1991C133.068 21.9059 132.668 22.4949 131.937 22.7541L132.8 24.3446C132.953 24.6262 132.749 24.9688 132.429 24.9688C132.272 24.9688 132.127 24.8816 132.054 24.7423L131.136 22.9897H129.84V24.533ZM132.126 21.2462C132.126 20.6572 131.725 20.3744 131.066 20.3744H129.84V22.1651H131.066C131.725 22.1651 132.126 21.8352 132.126 21.2462Z" fill="#050F27"/>
</svg>
